Coordinates
version=1
nRows=11
nColumns=40
inDegrees=yes

Units are S.I. units (second, meters, Newtons, ...)
Angles are in degrees.

endheader
time	pelvis_tilt	pelvis_list	pelvis_rotation	pelvis_tx	pelvis_ty	pelvis_tz	hip_flexion_r	hip_adduction_r	hip_rotation_r	knee_angle_r	knee_angle_r_beta	ankle_angle_r	subtalar_angle_r	mtp_angle_r	hip_flexion_l	hip_adduction_l	hip_rotation_l	knee_angle_l	knee_angle_l_beta	ankle_angle_l	subtalar_angle_l	mtp_angle_l	lumbar_extension	lumbar_bending	lumbar_rotation	arm_flex_r	arm_add_r	arm_rot_r	elbow_flex_r	pro_sup_r	wrist_flex_r	wrist_dev_r	arm_flex_l	arm_add_l	arm_rot_l	elbow_flex_l	pro_sup_l	wrist_flex_l	wrist_dev_l
     43.42000000	     -7.39561386	     -3.28645190	     -9.53797188	      0.90096236	      0.92109998	      0.50122798	     23.11096474	      1.84767242	     -2.66038878	     22.41112099	     22.41112099	      9.39608838	      2.49771349	     -1.60644142	      6.07727034	     -7.10219306	     -8.63773556	     20.47229218	     20.47229218	     19.47024053	    -10.47013625	      1.26454405	     -8.09395417	      5.54729715	     -0.82655040	      0.21188408	    -17.48227628	     -9.48621576	     47.52064143	     45.24485370	      0.00000000	      0.00000000	     25.24672892	    -14.42652409	     -1.71251654	     65.38840351	     46.89050315	      0.00000000	      0.00000000
     43.44342857	     -7.64827472	     -3.18231733	     -8.68451482	      0.90119012	      0.92178095	      0.50653151	     22.77959427	      1.90543798	     -3.26504720	     22.07275391	     22.07275391	      9.59338222	      2.21728710	     -1.58149558	      5.89510556	     -7.39891657	     -8.36337317	     19.94284694	     19.94284694	     19.06924568	     -9.61240540	      1.32560659	     -7.88252744	      5.29053010	     -1.08012879	      1.37903561	    -18.24443131	     -9.58786518	     48.40555474	     45.23016546	      0.00000000	      0.00000000	     24.13512289	    -14.09328299	     -1.11874758	     64.40563499	     46.82765671	      0.00000000	      0.00000000
     43.46685714	     -7.87147434	     -3.10519554	     -7.81402571	      0.90133793	      0.92252492	      0.51167528	     22.35596235	      1.98172125	     -3.90266088	     21.62166001	     21.62166001	      9.77627568	      1.98682583	     -1.56469913	      5.76259221	     -7.74120163	     -8.18361016	     19.53278784	     19.53278784	     18.69494039	     -8.63695118	      1.32531623	     -7.70451198	      5.04329900	     -1.31883450	      2.47536973	    -19.03857438	     -9.54372871	     49.47245489	     45.20233424	      0.00000000	      0.00000000	     22.97069722	    -13.78944205	     -0.31119454	     63.05324325	     46.74316955	      0.00000000	      0.00000000
     43.49028571	     -8.07484017	     -3.06129137	     -6.98161987	      0.90135555	      0.92322105	      0.51670609	     21.92156520	      2.10407249	     -4.50895803	     21.16160994	     21.16160994	      9.85673734	      1.72894345	     -1.79440231	      5.74842619	     -8.16874137	     -8.20778856	     19.38031162	     19.38031162	     18.41192890	     -7.43817288	      1.22158401	     -7.53990884	      4.82266417	     -0.90604149	      2.71013786	    -20.37569996	     -8.70696425	     51.59142583	     45.11858559	      0.00000000	      0.00000000	     22.40354499	    -13.23962062	      1.70820557	     60.36649753	     46.56688601	      0.00000000	      0.00000000
     43.51371429	     -8.22819332	     -3.00533177	     -6.13773774	      0.90137928	      0.92407631	      0.52151716	     21.34308533	      2.21456085	     -5.09666709	     20.53005059	     20.53005059	      9.99163597	      1.55741276	     -1.74025308	      5.73852602	     -8.49081479	     -7.90900461	     19.27540500	     19.27540500	     17.99948307	     -6.85005220	      1.34003421	     -7.41839655	      4.56139694	     -1.22796720	      3.88094867	    -20.98438812	     -8.91494707	     52.65676540	     45.10237671	      0.00000000	      0.00000000	     20.79138518	    -12.94389545	      2.29318367	     58.87688811	     46.49327285	      0.00000000	      0.00000000
     43.53714286	     -8.32081058	     -2.99069206	     -5.35044814	      0.90135088	      0.92489620	      0.52623573	     20.72323992	      2.38306001	     -5.64618293	     19.92243323	     19.92243323	     10.10173245	      1.37601636	     -1.74160641	      5.85896952	     -8.88517405	     -7.70624028	     19.55096446	     19.55096446	     17.66345464	     -6.31495001	      1.33978248	     -7.34722121	      4.32034507	     -1.49674022	      4.99063289	    -21.60223547	     -8.96614175	     54.01139227	     45.07022012	      0.00000000	      0.00000000	     19.17943712	    -12.62584028	      2.97333357	     56.70226109	     46.40441152	      0.00000000	      0.00000000
     43.56057143	     -8.35531165	     -3.00896129	     -4.60180561	      0.90132249	      0.92563987	      0.53084604	     20.06580449	      2.60655368	     -6.10473239	     19.35442124	     19.35442124	     10.27403048	      1.13409996	     -1.76302694	      6.14483723	     -9.31503926	     -7.43440296	     20.25305889	     20.25305889	     17.28917738	     -6.10464874	      1.23334059	     -7.30924770	      4.11825540	     -1.70327199	      6.01535817	    -22.15215009	     -8.99571919	     55.45908821	     45.03288366	      0.00000000	      0.00000000	     17.50565257	    -12.27492207	      3.57860962	     54.28096934	     46.31771979	      0.00000000	      0.00000000
     43.58400000	     -8.28076014	     -3.07672409	     -3.92402913	      0.90135721	      0.92627500	      0.53543497	     19.36281341	      2.90294698	     -6.45983511	     18.91804238	     18.91804238	     10.50562674	      0.80896787	     -1.79943703	      6.58310530	     -9.80658668	     -7.06296991	     21.49522145	     21.49522145	     16.84292696	     -6.29649589	      0.95030279	     -7.29620998	      3.91237470	     -1.94720723	      7.05296622	    -22.61309246	     -9.05430964	     57.08417404	     44.99031846	      0.00000000	      0.00000000	     15.73752999	    -11.91942257	      4.09755926	     51.58455281	     46.23407621	      0.00000000	      0.00000000
     43.60742857	     -8.08709224	     -3.08519718	     -3.39897907	      0.90138670	      0.92682395	      0.54000553	     18.70389108	      3.19026575	     -6.51278632	     18.73866952	     18.73866952	     10.60248056	      0.12078450	     -1.99628713	      7.02558365	    -10.19241959	     -6.58609150	     23.01797599	     23.01797599	     16.04759933	     -7.04429629	     -0.24645919	     -7.39027374	      3.65860191	     -1.22411598	      6.82458677	    -23.62664444	     -8.88493108	     60.43432090	     44.89734828	      0.00000000	      0.00000000	     15.25932663	    -10.89531042	      4.73042970	     45.77621718	     46.13981360	      0.00000000	      0.00000000
     43.63085714	     -7.85568169	     -3.21960887	     -2.85467743	      0.90134712	      0.92698123	      0.54443579	     18.07967554	      3.58554717	     -6.65503547	     18.71257867	     18.71257867	     10.93603566	     -0.45759235	     -1.98399767	      7.87787270	    -10.69490250	     -5.73810728	     25.33526603	     25.33526603	     14.97415447	     -8.54465017	     -1.90087321	     -7.51788503	      3.51998791	     -0.99634120	      7.29516837	    -23.84206496	    -10.02110699	     63.14078975	     44.89495327	      0.00000000	      0.00000000	     13.77807722	    -10.36343260	      5.11413893	     41.95922731	     46.07680006	      0.00000000	      0.00000000
     43.65428571	     -7.52084675	     -3.38872628	     -2.37157117	      0.90130272	      0.92678886	      0.54884685	     17.53300796	      4.04526997	     -6.60074749	     19.02347430	     19.02347430	     11.41363283	     -1.32975179	     -1.86672395	      8.97173129	    -11.20428667	     -4.68336738	     28.34632608	     28.34632608	     13.94529799	    -10.39975292	     -3.14666335	     -7.69481883	      3.37926707	     -1.15982621	      8.40615452	    -23.87271200	    -10.50080288	     65.43652047	     44.87319991	      0.00000000	      0.00000000	     11.85494014	    -10.10819070	      5.26990232	     38.65558911	     46.02767178	      0.00000000	      0.00000000
